<svg width="343" height="343" viewBox="0 0 343 343" fill="none" xmlns="http://www.w3.org/2000/svg">
<g clip-path="url(#clip0_109_363)">
<path d="M99.7256 30.4353C105.73 24.4254 113.876 21.047 122.372 21.0432L220.496 21C228.991 20.9963 237.14 24.3675 243.15 30.3721L312.565 99.7256C318.575 105.73 321.953 113.876 321.957 122.372L321.978 171.434L322 220.496C322.004 228.991 318.632 237.14 312.628 243.15L243.274 312.565C237.27 318.575 229.124 321.953 220.628 321.957L122.504 322C114.009 322.004 105.86 318.632 99.8499 312.628L30.4353 243.274C24.4254 237.27 21.047 229.124 21.0432 220.628L21 122.504C20.9963 114.009 24.3675 105.86 30.3721 99.8499L99.7256 30.4353Z" fill="#353535" stroke="#E3E3E3" stroke-width="40"/>
<path d="M312.628 243.15L243.274 312.565C237.27 318.575 229.124 321.953 220.628 321.957L122.504 322C114.009 322.004 105.86 318.632 99.8499 312.628L30.4353 243.274C24.4254 237.27 21.047 229.124 21.0432 220.628L21 122.504C20.9963 114.009 24.3675 105.86 30.3721 99.8499L99.7256 30.4353C105.73 24.4254 113.876 21.047 122.372 21.0432L220.496 21C228.991 20.9963 237.14 24.3675 243.15 30.3721L312.565 99.7256" stroke="#00A7FF" stroke-width="40"/>
<path d="M317 102L222 218" stroke="#01E6FF" stroke-opacity="0.98" stroke-width="40" stroke-linecap="round" stroke-linejoin="round"/>
<path d="M85.6882 152.443L99.6282 129.299L149.319 159.248L160.134 125.921L216.479 215.586L110.898 207.564L135.359 182.398L85.6882 152.443Z" fill="white"/>
<path d="M89.2632 154.599L101.465 134.366L103.224 131.45L97.4722 132.874L114.283 143.012L141.058 159.159L147.143 162.828C149.501 164.25 152.484 162.972 153.323 160.435L162.833 131.163L164.153 127.083L156.473 127.949C158.33 130.919 160.207 133.883 162.064 136.853C166.552 144.003 171.065 151.168 175.553 158.317C180.967 166.941 186.402 175.561 191.821 184.205C196.521 191.69 201.217 199.155 205.917 206.64C208.189 210.241 210.324 213.983 212.723 217.487C212.758 217.543 212.788 217.578 212.824 217.634L216.585 211.397C213.092 211.14 209.594 210.863 206.101 210.607C197.684 209.973 189.261 209.32 180.823 208.691C170.669 207.927 160.51 207.143 150.356 206.378C141.542 205.714 132.749 205.044 123.935 204.379C119.69 204.05 115.426 203.553 111.161 203.401C111.095 203.396 111.049 203.386 110.983 203.38L113.801 210.577C120.952 203.22 128.118 195.838 135.269 188.481L138.262 185.41C140.135 183.48 139.873 180.244 137.494 178.827L120.684 168.69L93.909 152.543L87.8238 148.873C85.9475 147.742 83.1535 148.304 82.0725 150.297C80.9915 152.29 81.4935 154.841 83.4966 156.049L100.307 166.186L127.082 182.333L133.167 186.003C132.903 183.804 132.664 181.62 132.4 179.42C125.249 186.777 118.083 194.16 110.932 201.517L107.939 204.587C105.359 207.232 107.152 211.512 110.756 211.784C114.249 212.04 117.747 212.317 121.24 212.574C129.658 213.207 138.081 213.861 146.519 214.489C156.673 215.254 166.832 216.038 176.986 216.802C185.8 217.467 194.593 218.137 203.407 218.801C207.651 219.131 211.91 219.608 216.181 219.78C216.247 219.785 216.292 219.795 216.358 219.8C219.481 220.041 221.789 216.212 220.12 213.563C218.263 210.593 216.386 207.629 214.529 204.659C210.041 197.51 205.527 190.345 201.039 183.195C195.625 174.571 190.191 165.952 184.772 157.307C180.072 149.822 175.376 142.357 170.676 134.872C168.404 131.272 166.218 127.585 163.87 124.025C163.835 123.969 163.804 123.934 163.769 123.878C161.846 120.817 157.25 121.243 156.089 124.744L146.579 154.017L145.259 158.097C147.328 157.304 149.371 156.496 151.439 155.704L134.629 145.566L107.854 129.419L101.769 125.749C99.8419 124.587 97.1949 125.221 96.0175 127.173L83.8156 147.407L82.0572 150.323C80.9257 152.199 81.4881 154.993 83.4813 156.074C85.505 157.104 88.0553 156.602 89.2632 154.599Z" fill="white"/>
</g>
<defs>
<clipPath id="clip0_109_363">
<rect width="343" height="343" fill="white"/>
</clipPath>
</defs>
</svg>
